<svg enable-background="new 0 0 10 10" width="10" height="10" viewBox="0 0 10 10" xmlns="http://www.w3.org/2000/svg">
<path d="M 5.2,0.02 C 5.54,0.02 6.21,0.39 6.36,0.72 6.55,1.13 6.57,1.18
6.57,1.62 6.57,1.99 6.52,2.3 6.43,2.54 6.39,2.67 6.29,2.91
6.19,3.14 6.06,3.39 5.88,3.64 5.65,3.88 L 5.71,4.31
C 5.99,4.47 6.44,4.73 7.02,5.05 7.45,5.28 7.71,5.42
7.78,5.47 8.08,5.62 8.26,5.8 8.46,6 7.91,5.81 7.32,5.71
6.87,5.71 6.3,5.71 5.6,6.06 5.01,6.06 4.4,6.06 3.7,5.67
3.09,5.67 2.57,5.67 1.98,5.94 1.42,5.98 2.28,5.31 3.34,4.79
4.36,4.36 L 4.37,3.87
C 3.61,3.7 3.38,3.23 3.38,2.7 3.38,2.48 3.57,2.24
3.57,2 3.57,1.8 3.41,1.57 3.41,1.35 3.41,0.97 3.66,0.42
4.05,0.25 4.3,0.14 4.49,0.07 4.6,0.05 4.69,0.03 4.89,0.02 5.2,0.02 Z
M 3.16,6.64 C 3.75,6.64 4.42,7.05 5,7.05 5.6,7.05 6.27,6.67
6.87,6.67 7.46,6.67 8.08,7.02 8.67,7.02 8.97,7.02 9.26,6.95
9.56,6.95 9.75,6.95 9.89,6.99 10,7 V 8 C 9.91,7.99 9.72,7.92
9.53,7.92 9.26,7.92 8.94,8 8.67,8 8.08,8 7.43,7.65
6.87,7.65 6.29,7.65 5.6,8.03 5,8.03 4.41,8.03 3.76,7.62
3.16,7.62 2.61,7.62 1.98,8.03 1.45,8.03 1.15,8.03 0.78,7.95
0.46,7.95 0.25,7.95 0.11,7.99 0,8 V 7 C 0.11,6.99 0.25,6.95
0.46,6.95 0.76,6.95 1.17,7.03 1.47,7.03 2.02,7.03 2.61,6.64 3.16,6.64 Z
M 3.16,8.6  C 3.76,8.6 4.68,9.01 5,9.01 5.6,9.01 6.29,8.63
6.87,8.63 7.43,8.63 8.36,8.98 8.67,8.98 8.94,8.98 9.28,8.88
9.53,8.88 9.72,8.88 9.91,8.92 10,8.94 V 9.94 C 9.94,9.92 9.74,9.85
9.6,9.85 9.33,9.85 8.93,9.96 8.67,9.96 8.10,9.96 7.44,9.62
6.87,9.62 6.29,9.62 5.58,10 5,10 4.42,10 3.75,9.58
3.16,9.58 2.62,9.58 1.97,10 1.45,10 1.17,10 0.82,9.88
0.53,9.88 0.32,9.88 0.11,9.93 0,9.95 V 8.94 C 0.11,8.92 0.27,8.9
0.45,8.9 0.77,8.9 1.12,8.98 1.45,8.98 1.97,8.98 2.64,8.6 3.16,8.6 Z"
fill="param(fill)" fill-opacity="param(fill-opacity)"
stroke="param(outline)" stroke-opacity="param(outline-opacity)" stroke-width="param(outline-width)"/>
</svg>
