<svg enable-background="new 0 0 64 62" width="64" height="62" viewBox="0 0 64 62" xmlns="http://www.w3.org/2000/svg">
<path d="M 9.7,0 L 11.1,0 14.4,13.6 5.4,4.6 Z
M 10.1,1.5 L 7.2,4.6 12,9.4 Z
M 10.8,60.8 L 11.1,62 9.7,62 Z
M 21.2,6.1 L 28.5,9.4 26.2,18.1 Z
M 23.7,8.7 L 25.9,14.1 27,10.2 Z
M 35.8,0 L 37.3,0 44.1,4.7 38.4,11.1 Z
M 37.5,1.7 L 39.1,8.4 42.2,5 Z
M 35.5,60.7 L 37.3,62 35.8,62 Z
M 50.9,1.9 L 58.3,5.8 56.3,17 Z
M 53.3,4.7 L 55.9,11.9 56.8,6.5 Z
M 5.4,14.1 L 5.5,26.5 0,20 0,18.2 Z
M 4.1,16.7 L 0.9,19.1 4.2,22.9 Z
M 63.1,18.9 L 64,18.2 64,20 Z
M 19.9,18.6 L 18.2,31.8 11.1,27.9 Z
M 18.1,22.4 L 13.2,27.6 17.2,29.8 Z
M 29.1,20.7 L 38.1,29.6 30.5,32.1 Z
M 30.8,24.3 L 31.6,30.4 35.6,29 Z
M 47.5,16.6 L 53.5,22.8 41.9,28 Z
M 47.8,18.8 L 44.6,25.3 51.2,22.3 Z
M 2.6,31.8 L 14.6,41.4 4.8,41.8 Z
M 4.7,35.1 L 5.8,40.4 11.1,40.2 Z
M 25.7,35.6 L 24.6,48.7 17.7,46.9 Z
M 24,40.3 L 19.9,46.1 23.4,47.1 Z
M 32.6,40.9 L 40.5,51.9 33.8,53.8 Z
M 34.3,45.6 L 35,52.1 38.3,51.2 Z
M 40.5,35.9 L 52.8,41.1 47.9,45.8 Z
M 44.4,39 L 48.1,43.9 50.5,41.6 Z
M 60.5,24.7 L 64,33.1 64,35.7 56.9,37.4 Z
M 60.7,28.6 L 58.8,35.6 63.2,34.6 Z
M 0,33.1 L 1,35.5 0,35.7 Z
M 13.8,48.7 L 2.7,58.8 5.8,47.2 Z
M 6.8,48.7 L 5,55 11,49.5 Z
M 25.9,55.1 L 29.7,61.1 21.1,62 16,62 Z
M 25.5,56.9 L 20,60.8 27.5,60.1 Z
M 21.1,0 L 16,0 15.2,0.6 Z
M 45.9,52.1 L 54.3,61 42.4,58.9 Z
M 46.2,54.3 L 44.4,57.9 50.7,59 Z
M 61.8,45.6 L 59.7,58.7 55.9,47.3 Z
M 60.2,47.4 L 57.6,48.2 59.3,53.3 Z"
fill="param(fill)" fill-opacity="param(fill-opacity)"
stroke="param(outline)" stroke-opacity="param(outline-opacity)" stroke-width="param(outline-width)"/>
</svg>
