<svg enable-background="new 0 0 10 8.18" width="10" height="8.18" viewBox="0 0 10 8.18" xmlns="http://www.w3.org/2000/svg">
<path d="M 10,0.83 L 9.98,0.89 8.17,2.92 Q 8.07,3.03 7.92,3.03 H 2.08 Q 1.93,3.03 1.83,2.92
L 0.02,0.89 0,0.83 0.02,0.77 0.69,0.02 0.75,0 0.81,0.02 2.41,1.81 
H 7.59 L 9.19,0.02 9.25,0 9.31,0.02 9.98,0.77 Z
M 10,7.35 L 9.98,7.41 9.31,8.16 9.25,8.18 9.19,8.16 7.59,6.37 H 2.41
L 0.81,8.16 0.75,8.18 0.69,8.16 0.02,7.41 0,7.35 0.02,7.29 1.83,5.26
Q 1.93,5.15 2.08,5.15 H 7.92 Q 8.07,5.15 8.17,5.26 L 9.98,7.29 Z"
fill="param(fill)" fill-opacity="param(fill-opacity)"
stroke="param(outline)" stroke-opacity="param(outline-opacity)" stroke-width="param(outline-width)"/>
</svg>
