<svg enable-background="new 0 0 10 10" width="10" height="10" viewBox="0 0 10 10" xmlns="http://www.w3.org/2000/svg">
<path d="M 6.82,0 Q 7.56,0 7.56,1.1 7.56,1.6 7.26,1.96 7.23,1.99
7.06,2.03 6.88,2.07 6.88,2.13 6.88,2.40 7.10,2.82 7.33,3.3 7.58,3.3 7.64,3.3
8.15,2.86 8.67,2.42 8.84,2.42 9.02,2.42 9.02,2.57 9.02,2.93 8.42,3.64
7.81,4.37 7.48,4.37 7.35,4.37 7.0,4.17 6.64,3.96 6.52,3.96 6.41,3.96 6.08,4.55
5.76,5.13 5.76,5.28 5.81,5.3 6.08,5.53 6.7,6.02 7.38,7.06 7.48,7.21 7.69,8.47
7.88,9.66 7.88,10 L 7.36,10 Q 6.96,10 6.86,9.46 6.73,8.83
6.64,8.24 6.4,7.4 5.76,6.92 5.28,6.56 5.14,6.56 5.02,6.56 4.59,7.18 4.13,7.83 3.94,7.92
L 2.4,8.03 Q 2.18,8.05 1.24,8.26 0.53,8.43 0.12,8.43 0,8.43 0,7.81 L 0.38,7.72
Q 0.78,7.62 1.64,7.32 L 3.34,6.96 Q 3.94,6.73 3.94,5.24 3.94,5.13 4.0,4.91 4.08,4.69 4.08,4.58
L 3.81,4.23 Q 3.54,3.88 3.54,3.68 3.54,3.16 4.2,2.67 4.57,2.38 5.42,1.96 6.08,1.63 6.08,1.54
6.08,1.41 5.98,1.14 5.88,0.88 5.88,0.74 5.88,0 6.82,0 Z"
fill="param(fill)" fill-opacity="param(fill-opacity)"
stroke="param(outline)" stroke-opacity="param(outline-opacity)" stroke-width="param(outline-width)"/>
</svg>
