<svg enable-background="new 0 0 10 8.68" width="10" height="8.68" viewBox="0 0 10 8.68" xmlns="http://www.w3.org/2000/svg">
<path d="M 10,4.34 Q 10,5.06 8.9,5.06 H 6.22 L 5.55,5.96 H 6.31
Q 6.67,5.96 6.67,6.32 6.67,6.68 6.31,6.68 H 4.99 L 4.22,7.78
Q 3.57,8.68 3.32,8.68 3,8.68 3,8.32 3,8.2 3.14,7.9 3.85,6.33 3.99,4.87
H 1.64 L 1.27,5.34 Q 0.93,5.8 0.81,5.8 0.66,5.8 0.66,5.44
V 4.7 Q 0.36,4.7 0.23,4.67 0,4.61 0,4.34 0,4.07 0.23,4.01 0.36,3.98 0.66,3.98
V 3.25 Q 0.66,2.88 0.81,2.88 0.93,2.88 1.27,3.34 L 1.64,3.81 H 3.99
Q 3.85,2.35 3.14,0.78 3,0.48 3,0.36 3,0 3.32,0 3.57,0 4.22,0.9 L 4.99,2
H 6.31 Q 6.67,2 6.67,2.36 6.67,2.72 6.31,2.72 H 5.55 L 6.22,3.62 H 8.9
Q 10,3.62 10,4.34 Z"
fill="param(fill)" fill-opacity="param(fill-opacity)"
stroke="param(outline)" stroke-opacity="param(outline-opacity)" stroke-width="param(outline-width)"/>
</svg>
