<svg enable-background="new 0 0 10 8.64" width="10" height="8.64" viewBox="0 0 10 8.64" xmlns="http://www.w3.org/2000/svg">
<path d="M 10,4.32 Q 9.34,4.69 8.68,4.69 H 6.26
L 3.87,8.1 Q 3.87,8.16 3.99,8.16 H 4.67
Q 5.15,8.16 5.15,8.4 5.15,8.64 4.67,8.64
H 2.8 L 3.96,4.68 1.12,4.58 0.55,5.97 H 0
V 2.67 H 0.55 L 1.12,4.06 3.96,3.96 2.8,0 H 4.67
Q 5.15,0 5.15,0.24 5.15,0.48 4.67,0.48 H 3.99
Q 3.87,0.48 3.87,0.54 L 6.26,3.95 H 8.68
Q 9.34,3.95 10,4.32 Z"
fill="param(fill)" fill-opacity="param(fill-opacity)"
stroke="param(outline)" stroke-opacity="param(outline-opacity)" stroke-width="param(outline-width)"/>
</svg>
