<svg enable-background="new 0 0 10 9" width="10" height="9" viewBox="0 0 10 9" xmlns="http://www.w3.org/2000/svg">
<path d="M 10,4.5 Q 10,5.15 7.87,5.15 L 6.88,5.13 6.51,7.31
Q 6.19,9 5.7,9 5.29,9 4.87,7.35 L 4.38,5.12 1.37,5.02
Q 1.3,6.62 0.78,6.62 0.41,6.62 0.18,5.7 0,5.02 0,4.5
0,3.98 0.18,3.3 0.41,2.38 0.78,2.38 1.3,2.38 1.37,3.98
L 4.38,3.88 4.87,1.65 Q 5.29,0 5.7,0 6.19,0 6.51,1.69
L 6.88,3.87 7.87,3.85 Q 10,3.85 10,4.5 Z"
fill="param(fill)" fill-opacity="param(fill-opacity)"
stroke="param(outline)" stroke-opacity="param(outline-opacity)" stroke-width="param(outline-width)"/>
</svg>
