<svg enable-background="new 0 0 10 10.52" width="10" height="10.52" viewBox="0 0 10 10.52" xmlns="http://www.w3.org/2000/svg">
<path d="M 5,7.27 L 1.91,9.51 3.09,5.88 0,3.63 H 3.82
L 5,0 6.18,3.63 H 10 L 6.91,5.88 8.09,9.51 Z
M 5,3.64 C 4.11,3.64 3.38,4.37
3.38,5.26 3.38,6.15 4.11,6.88
5,6.88 5.89,6.88 6.62,6.15
6.62,5.26 6.62,4.37 5.89,3.64 5,3.64 Z"
fill="param(fill)" fill-opacity="param(fill-opacity)"
stroke="param(outline)" stroke-opacity="param(outline-opacity)" stroke-width="param(outline-width)"/>
<path d="M 5,3.64 C 5.89,3.64 6.62,4.37
6.62,5.26 6.62,6.15 5.89,6.88
5,6.88 4.11,6.88 3.38,6.15
3.38,5.26 3.38,4.37 4.11,3.64 5,3.64 Z"
style="fill:#ffffff;fill-opacity:1;fill-rule:nonzero;stroke:none"/>
</svg>
