<svg enable-background="new 0 0 10 10" width="10" height="10" viewBox="0 0 10 10" xmlns="http://www.w3.org/2000/svg">
<path d="M 5,0 C 5.92,0 6.67,0.75 6.67,1.67 6.67,2.41 6.18,3.06 5.48,3.27
V 3.31 H 6.91 V 4.27 H 5.48 V 8.53 
C 6.60,8.43 7.61,7.99 8.45,7.24 L 7.85,6.65 H 9.75 V 8.56 L 9.13,7.92
C 8.04,8.89 6.81,9.42 5.36,9.5 L 5,10 4.64,9.5
C 3.19,9.42 1.96,8.89 0.87,7.92
L 0.25,8.56 V 6.65 H 2.15 L 1.55,7.24 C 2.39,7.99 3.4,8.43
4.52,8.53 V 4.27 H 3.09 V 3.31 H 4.52 V 3.27
C 3.82,3.06 3.33,2.41 3.33,1.67 3.33,0.75 4.08,0 5,0 Z
M 5,0.52 C 4.37,0.52 3.85,1.04 3.85,1.67 3.85,2.3 4.37,2.82
5,2.82 5.63,2.82 6.15,2.3 6.15,1.67 6.15,1.04 5.63,0.52 5,0.52 Z"
fill="param(fill)" fill-opacity="param(fill-opacity)"
stroke="param(outline)" stroke-opacity="param(outline-opacity)" stroke-width="param(outline-width)"/>
</svg>
