<svg enable-background="new 0 0 10 10" width="10" height="10" viewBox="0 0 10 10" xmlns="http://www.w3.org/2000/svg">
<path d="M 9.96,1.42 L 6.09,2.31 5.3,6.68
Q 6.16,6.68 7.48,6.99 9.48,7.5 9.48,8.34 9.48,9.18
7.48,9.69 6.16,10 4.74,10 3.32,10 2,9.69 0,9.18 0,8.34 0,7.50
2,6.99 3.32,6.68 4.73,6.68 L 6.03,0 9.96,1.42 Z
M 8.91,8.34 Q 8.91,7.81 7.15,7.45 6.04,7.26 5.2,7.26 L 5.03,8.15
Q 5.01,8.27 4.91,8.34 4.8,8.4 4.69,8.38 4.59,8.36 4.5,8.26 4.44,8.16 4.46,8.04
L 4.62,7.25 Q 3.44,7.25 2.33,7.45 0.57,7.81 0.57,8.34 0.57,8.87
2.33,9.23 3.44,9.43 4.74,9.43 6.04,9.43 7.15,9.23 8.91,8.87 8.91,8.34 Z"
fill="param(fill)" fill-opacity="param(fill-opacity)"
stroke="param(outline)" stroke-opacity="param(outline-opacity)" stroke-width="param(outline-width)"/>
<path d="M 8.91,8.34 Q 8.91,8.87 7.15,9.23 6.04,9.43 4.74,9.43 3.44,9.43 2.33,9.23
0.57,8.87 0.57,8.34 0.57,7.81 2.33,7.45 3.44,7.25 4.62,7.25 L 4.46,8.04
Q 4.44,8.16 4.5,8.26 4.59,8.36 4.69,8.38 4.8,8.4 4.91,8.34 5.01,8.27 5.03,8.15
L 5.2,7.26 Q 6.04,7.26 7.15,7.45 8.91,7.81 8.91,8.34 Z"
style="fill:#ffffff;fill-opacity:1;fill-rule:nonzero;stroke:none"/>
</svg>
