<svg enable-background="new 0 0 10 4.7" width="10" height="4.7" viewBox="0 0 10 4.7" xmlns="http://www.w3.org/2000/svg">
<path d="M 2.35,0 H 7.65 C 8.95,0 10,1.05 10,2.35 10,3.65 8.95,4.7 7.65,4.7
H 2.35 C 1.05,4.7 0,3.65 0,2.35 0,1.05 1.05,0 2.35,0 Z
M 2.35,0.22 C 1.17,0.22 0.22,1.17 0.22,2.35 0.22,3.53 1.17,4.48 2.35,4.48
H 7.65 C 8.83,4.48 9.78,3.53 9.78,2.35 9.78,1.17 8.83,0.22 7.65,0.22 H 2.35 Z
M 2.35,0.53 H 7.65 C 8.65,0.53 9.47,1.35 9.47,2.35 9.47,3.35 8.65,4.17 7.65,4.17
H 2.35 C 1.35,4.17 0.53,3.35 0.53,2.35 0.53,1.35 1.35,0.53 2.35,0.53 Z
M 2.35,0.75 C 1.47,0.75 0.75,1.47 0.75,2.35 0.75,3.23 1.47,3.95 2.35,3.95
H 7.65 C 8.53,3.95 9.25,3.23 9.25,2.35 9.25,1.47 8.53,0.75 7.65,0.75 H 2.35 Z"
fill="param(fill)" fill-opacity="param(fill-opacity)"
stroke="param(outline)" stroke-opacity="param(outline-opacity)" stroke-width="param(outline-width)"/>
</svg>
