<svg enable-background="new 0 0 10 5.3" width="10" height="5.3" viewBox="0 0 10 5.3" xmlns="http://www.w3.org/2000/svg">
<path d="M 2.65,0 H 7.35 C 8.81,0 10,1.19 10,2.65 10,4.11 8.81,5.3 7.35,5.3
H 2.65 C 1.19,5.3 0,4.11 0,2.65 0,1.19 1.19,0 2.65,0 Z
M 2.65,0.33 C 1.37,0.33 0.33,1.37 0.33,2.65 0.33,3.93 1.37,4.97 2.65,4.97
H 7.35 C 8.63,4.97 9.67,3.93 9.67,2.65 9.67,1.37 8.63,0.33 7.35,0.33 H 2.65 Z
M 2.65,1 H 7.35 C 8.26,1 9,1.74 9,2.65 9,3.56 8.26,4.3 7.35,4.3
H 2.65 C 1.74,4.3 1,3.56 1,2.65 1,1.74 1.74,1 2.65,1 Z
M 2.65,1.33 C 1.92,1.33 1.33,1.92 1.33,2.65 1.33,3.38 1.92,3.97 2.65,3.97
H 7.35 C 8.08,3.97 8.67,3.38 8.67,2.65 8.67,1.92 8.08,1.33 7.35,1.33 H 2.65 Z"
fill="param(fill)" fill-opacity="param(fill-opacity)"
stroke="param(outline)" stroke-opacity="param(outline-opacity)" stroke-width="param(outline-width)"/>
</svg>
