<svg enable-background="new 0 0 10 5" width="10" height="5" viewBox="0 0 10 5" xmlns="http://www.w3.org/2000/svg">
<path d="M 10,2.5 C 10,3.78 9.15,5 7.96,5 H 2.04
C 0.85,5 0,3.78 0,2.5 0,1.22 0.85,0 2.04,0 H 7.96
C 9.15,0 10,1.22 10,2.5 Z
M 9.71,2.5 C 9.71,1.36 8.99,0.29 7.96,0.29 H 2.04
C 1.01,0.29 0.29,1.36 0.29,2.5 0.29,3.64 1.01,4.71 2.04,4.71 H 7.96
C 8.99,4.71 9.71,3.64 9.71,2.5 Z
M 9.24,2.5 C 9.24,3.41 8.74,4.24 7.96,4.24 H 2.04
C 1.26,4.24 0.76,3.41 0.76,2.5 0.76,1.59 1.26,0.76 2.04,0.76 H 7.96
C 8.74,0.76 9.24,1.59 9.24,2.5 Z
M 8.95,2.5 C 8.95,1.73 8.58,1.05 7.96,1.05 H 2.04
C 1.42,1.05 1.05,1.73 1.05,2.5 1.05,3.27 1.42,3.95 2.04,3.95 H 7.96
C 8.58,3.95 8.95,3.27 8.95,2.5 Z"
fill="param(fill)" fill-opacity="param(fill-opacity)"
stroke="param(outline)" stroke-opacity="param(outline-opacity)" stroke-width="param(outline-width)"/>
</svg>
