<svg enable-background="new 0 0 10 10" width="10" height="10" viewBox="0 0 10 10" xmlns="http://www.w3.org/2000/svg">
<path d="M 0.81,0 L 3.28,2.47 C 3.79,2.12 4.38,1.94 5,1.94 5.62,1.94 6.21,2.12 6.72,2.47
L 9.19,0 10,0.81 7.53,3.28 C 7.88,3.79 8.06,4.38 8.06,5 8.06,5.62 7.88,6.21 7.53,6.72 
L 10,9.19 9.19,10 6.72,7.53 C 6.21,7.88 5.62,8.06 5,8.06 4.38,8.06 3.79,7.88 3.28,7.53
L 0.81,10 0,9.19 2.47,6.72 C 2.12,6.21 1.94,5.62 1.94,5 1.94,4.38 2.12,3.79 2.47,3.28
L 0,0.81 0.81,0 Z"
fill="param(fill)" fill-opacity="param(fill-opacity)"
stroke="param(outline)" stroke-opacity="param(outline-opacity)" stroke-width="param(outline-width)"/>
</svg>
