<svg enable-background="new 0 0 10 10" width="10" height="10" viewBox="0 0 10 10" xmlns="http://www.w3.org/2000/svg">
<path d="M 1.94,2.87 L 2.62,8.05 H 2.78 L 3.45,2.87 H 5.39 V 10 H 4.23
V 4.64 H 4.07 L 3.33,10 H 2.06 L 1.33,4.64 H 1.17 V 10 H 0 V 2.87 H 1.94 Z
M 8.19,4.37 C 8.66,4.37 9.81,4.56 9.88,6.16 H 8.64
C 8.57,5.64 8.45,5.45 7.98,5.45 7.7,5.45 7.54,5.68 7.54,5.94
7.54,6.11 7.65,6.25 7.86,6.37 7.98,6.41 8.33,6.52 8.57,6.59
9.06,6.73 9.41,6.9 9.62,7.1 9.85,7.32 10,7.66 10,8.17
10,9.45 9.24,10 7.93,10 6.85,10 6.2,9.23 6.2,8.1
H 7.48 C 7.51,8.77 7.78,8.9 8.23,8.9 8.48,8.9 8.73,8.8
8.73,8.33 8.73,8.14 8.61,8.0 8.37,7.92 8.07,7.8 7.76,7.7
7.46,7.61 6.71,7.36 6.33,6.81 6.33,5.99 6.33,4.94 7.12,4.37 8.19,4.37 Z"
fill="param(fill)" fill-opacity="param(fill-opacity)"
stroke="param(outline)" stroke-opacity="param(outline-opacity)" stroke-width="param(outline-width)"/>
</svg>
