<svg enable-background="new 0 0 10 10" width="10" height="10" viewBox="0 0 10 10" xmlns="http://www.w3.org/2000/svg">
<path d="M 5,0 C 7.76,0 10,2.24 10,5 10,7.76 7.76,10
5,10 2.24,10 0,7.76 0,5 0,2.24 2.24,0 5,0 Z
M 5,1.82 C 3.24,1.82 1.82,3.24 1.82,5 1.82,6.76 3.24,8.18
5,8.18 6.76,8.18 8.18,6.76 8.18,5 8.18,3.24 6.76,1.82 5,1.82 Z
M 5,3.64 C 5.75,3.64 6.36,4.25 6.36,5 6.36,5.75 5.75,6.36
5,6.36 4.25,6.36 3.64,5.75 3.64,5 3.64,4.25 4.25,3.64 5,3.64 Z"
fill="param(fill)" fill-opacity="param(fill-opacity)"
stroke="param(outline)" stroke-opacity="param(outline-opacity)" stroke-width="param(outline-width)" />
<path d="M 5,1.82 C 6.76,1.82 8.18,3.24 8.18,5 8.18,6.76 6.76,8.18
5,8.18 3.24,8.18 1.82,6.76 1.82,5 1.82,3.24 3.24,1.82 5,1.82 Z
M 5,3.64 C 4.25,3.64 3.64,4.25 3.64,5 3.64,5.75 4.25,6.36 
5,6.36 5.75,6.36 6.36,5.75 6.36,5 6.36,4.25 5.75,3.64 5,3.64 Z"
style="fill:#ffffff;fill-opacity:1;fill-rule:nonzero;stroke:none" />
</svg>
