<svg enable-background="new 0 0 10 3.82" width="10" height="3.82" viewBox="0 0 10 3.82" xmlns="http://www.w3.org/2000/svg">
<path d="M 0,1.91 C 0,1.27 0.51,0.76 1.15,0.76 1.71,0.76 2.2,1.16 2.29,1.72
H 10 V 2.06 C 9.89,3.16 9.05,3.57 8.68,3.82 8.93,3.49 9.16,3.4 9.31,2.4
V 2.11 H 8.11 C 7.86,3.14 7.22,3.54 6.76,3.81 7.06,3.46 7.25,3.3 7.39,2.4
V 2.11 H 6.15 C 5.99,3.09 5.31,3.51 4.84,3.79 5.11,3.45 5.35,3.34 5.45,2.4
V 2.1 H2.29 C 2.2,2.66 1.71,3.06 1.15,3.06 0.51,3.06 0,2.55 0,1.91 Z"
fill="param(fill)" fill-opacity="param(fill-opacity)"
stroke="param(outline)" stroke-opacity="param(outline-opacity)" stroke-width="param(outline-width)"/>
</svg>
