<svg enable-background="new 0 0 10 3.82" width="10" height="3.82" viewBox="0 0 10 3.82" xmlns="http://www.w3.org/2000/svg">
<path d="M 0,1.91 C 0,1.27 0.51,0.76 1.15,0.76 1.71,0.76 2.2,1.16 2.29,1.72
H 5.45 V 1.42 C 5.35,0.48 5.11,0.37 4.84,0.03 5.31,0.31 5.99,0.73 6.15,1.71
H 7.39 V 1.42 C 7.25,0.52 7.06,0.36 6.76,0.01 7.22,0.28 7.86,0.68 8.11,1.71
H 9.31 V 1.42 C 9.16,0.42 8.93,0.33 8.68,0 9.05,0.25 9.89,0.67 10,1.76
V 2.1 H 2.29 C 2.2,2.66 1.71,3.06 1.15,3.06 0.51,3.06 0,2.55 0,1.91 Z"
fill="param(fill)" fill-opacity="param(fill-opacity)"
stroke="param(outline)" stroke-opacity="param(outline-opacity)" stroke-width="param(outline-width)"/>
</svg>
