<svg enable-background="new 0 0 10 10" width="10" height="10" viewBox="0 0 10 10" xmlns="http://www.w3.org/2000/svg">
<path d="M 10,2.15 C 10,3.34 9.04,4.3 7.85,4.3
L 7.24,4.33 C 7.15,4.33 7.07,4.41 7.07,4.5

L 7.07,5.5 C 7.07,5.59 7.15,5.67 7.24,5.67
L 7.85,5.7 C 9.04,5.7 10,6.66 10,7.85 10,9.04
9.04,10 7.85,10 6.66,10 5.7,9.04 5.7,7.85
L 5.67,7.24 C 5.67,7.15 5.59,7.07 5.5,7.07

L 4.5,7.07 C 4.41,7.07 4.33,7.15 4.33,7.24
L 4.3,7.85 C 4.3,9.04 3.34,10 2.15,10 0.96,10
0,9.04 0,7.85 0,6.66 0.96,5.7 2.15,5.7
L 2.76,5.67 C 2.85,5.67 2.93,5.59 2.93,5.5

L 2.93,4.5 C 2.93,4.41 2.85,4.33 2.76,4.33
L 2.15,4.3 C 0.96,4.3 0,3.34 0,2.15
0,0.96 0.96,0 2.15,0 3.34,0 4.3,0.96 4.3,2.15
L 4.33,2.76 C 4.33,2.85 4.41,2.93 4.5,2.93

L 5.5,2.93 C 5.59,2.93 5.67,2.85 5.67,2.76
L 5.7,2.15 C 5.7,0.96 6.66,0 7.85,0 9.04,0
10,0.96 10,2.15 Z

M 3.2,2.15 C 3.2,1.57 2.73,1.1 2.15,1.1 1.57,1.1 1.1,1.57 1.1,2.15 1.1,2.73
1.57,3.2 2.15,3.2 3.17,3.2 3.2,3.17 3.2,2.15 Z

M 8.9,2.15 C 8.9,1.57 8.43,1.1 7.85,1.1 7.27,1.1 6.8,1.57 6.8,2.15 6.8,3.17
6.83,3.2 7.85,3.2 8.43,3.2 8.9,2.73 8.9,2.15 Z

M 3.2,7.85 C 3.2,6.83 3.17,6.8 2.15,6.8 1.57,6.8 1.1,7.27 1.1,7.85 1.1,8.43
1.57,8.9 2.15,8.9 2.73,8.9 3.2,8.43 3.2,7.85 Z

M 8.9,7.85 C 8.9,7.27 8.43,6.8 7.85,6.8 6.83,6.8 6.8,6.83 6.8,7.82 6.8,8.43
7.28,8.9 7.84,8.9 8.43,8.9 8.9,8.43 8.9,7.85 Z

M 5.92,5.6 V 4.4 C 5.92,4.22 5.78,4.08 5.6,4.08 H 4.4
C 4.22,4.08 4.08,4.22 4.08,4.4 V 5.6
C 4.08,5.78 4.22,5.92 4.4, 5.92 H 5.6
C 5.78,5.92 5.92,5.78 5.92,5.6 Z"
fill="param(fill)" fill-opacity="param(fill-opacity)"
stroke="param(outline)" stroke-opacity="param(outline-opacity)" stroke-width="param(outline-width)"/>
</svg>
