<svg enable-background="new 0 0 10 10" width="10" height="10" viewBox="0 0 10 10" xmlns="http://www.w3.org/2000/svg">
<path d="M 10,5 C 10,7.76 7.76,10 5,10 2.24,10
0,7.76 0,5 0,2.24 2.24,0 5,0 7.76,0 10,2.24 10,5 Z
M 9.1,5 C 9.1,2.74 7.26,0.9 5,0.9 2.74,0.9
0.9,2.74 0.9,5 0.9,7.26 2.74,9.1 5,9.1 7.26,9.1 9.1,7.26 9.1,5 Z"
fill="param(fill)" fill-opacity="param(fill-opacity)"
stroke="param(outline)" stroke-opacity="param(outline-opacity)" stroke-width="param(outline-width)"/>
<path d="M 9.1,5 C 9.1,7.26 7.26,9.1 5,9.1 2.74,9.1
0.9,7.26 0.9,5 0.9,2.74 2.74,0.9 5,0.9 7.26,0.9 9.1,2.74 9.1,5 Z
M 8.25,5.88 V 4.12 H 5.88 V 1.75 H 4.12 V 4.12 H 1.75
V 5.88 H 4.12 V 8.25 H 5.88 V 5.88 Z"
style="fill:#ffffff;fill-opacity:1;fill-rule:nonzero;stroke:none"/>
<path d="M 8.25,5.88 H 5.88 V 8.25 H 4.12 V 5.88 H 1.75
V 4.12 H 4.12 V 1.75 H 5.88 V 4.12 H 8.25 Z"
style="fill:#ff0000;fill-opacity:1;fill-rule:nonzero;stroke:none"/>
</svg>
