<svg enable-background="new 0 0 10 10" width="10" height="10" viewBox="0 0 10 10" xmlns="http://www.w3.org/2000/svg">
<path d="M 10,3.41 L 6.82,9.01 H 9.05 Q 9.46,9.01 9.8,8.55 H 9.89 V 8.72
Q 9.48,9.52 8.93,9.52 H 6.66 L 6.45,9.56 Q 6.2,10 6.0,10 5.89,10 5.89,9.87
L 5.97,9.63 5.95,9.52 H 0.42 V 9.01 H 0.97 L 1.07,8.89 0.97,8.77 1.01,8.68
Q 2.78,7.28 4.11,5.49 L 4.23,5.04 5.2,3.91 5.29,3.74 V 3.62 L 4.83,3.59
Q 4.43,3.59 3.99,4.11 3.61,4.52 3.43,4.64 H 3.12 Q 1.27,5.56 0.42,6.28
V 5.91 Q 0.9,5.65 3.75,3.85 3.86,3.79 4.04,3.49 4.23,3.18 4.35,3.11
L 6.25,2.96 6.85,2.89 7.2,2.94 7.71,2.47
Q 7.76,2.42 7.76,2.33 7.76,2.16 7.65,2.15 L 7.3,2.12
Q 7.23,2.11 7.23,2.04 7.23,1.79 7.48,1.79 7.56,1.79 7.63,1.84
L 8.29,2.34 Q 8.45,2.57 8.45,2.77 8.45,2.98 8.42,3.1
L 8.12,3.57 8.27,3.65 9.87,3.26 Q 10,3.26 10,3.41 Z
M 9.27,3.99 L 9.25,3.87 8.3,4.33 7.78,4.19 7.31,4.1 5.59,5.49 5.67,5.87
Q 5.9,6.07 6.38,7.09 L 5.9,8.99 6.15,9.08 6.38,9.0 9.27,3.99 Z
M 5.69,7.27 L 5.58,6.95 4.88,6.19 H 4.75 Q 3.06,7.7 1.41,8.84
L 1.36,8.96 1.5,9.01 H 5.42 L 5.5,8.97 Q 5.58,8.78 5.69,7.27 Z"
fill="param(fill)" fill-opacity="param(fill-opacity)"
stroke="param(outline)" stroke-opacity="param(outline-opacity)" stroke-width="param(outline-width)"/>
</svg>
