<svg enable-background="new 0 0 10 10" width="10" height="10" viewBox="0 0 10 10" xmlns="http://www.w3.org/2000/svg">
<path d="M 5,0 C 7.76,0 10,2.24 10,5 10,7.76 7.76,10
5,10 2.24,10 0,7.76 0,5 0,2.24 2.24,0 5,0 Z
M 5,2.78 C 3.77,2.78 2.78,3.77 2.78,5 2.78,6.23 3.77,7.22
5,7.22 6.23,7.22 7.22,6.23 7.22,5 7.22,3.77 6.23,2.78 5,2.78 Z"
fill="param(fill)" fill-opacity="param(fill-opacity)"
stroke="param(outline)" stroke-opacity="param(outline-opacity)" stroke-width="param(outline-width)"/>
<path d="M 5,2.78 C 6.23,2.78 7.22,3.77 7.22,5 7.22,6.23 6.23,7.22
5,7.22 3.77,7.22 2.78,6.23 2.78,5 2.78,3.77 3.77,2.78 5,2.78 Z"
style="fill:#ffffff;fill-opacity:1;fill-rule:nonzero;stroke:none"/>
</svg>
