<svg enable-background="new 0 0 13.54 13.54" width="13.54" height="13.54" viewBox="0 0 13.54 13.54" xmlns="http://www.w3.org/2000/svg">
<path d=" M 13.54,6.77 C 13.54,10.51 10.51,13.54 6.77,13.54 3.03,13.54 0,10.51
0,6.77 0,3.03 3.03,0 6.77,0 10.51,0 13.54,3.03 13.54,6.77 Z
M 12.83,6.77 C 12.83,3.42 10.12,0.71 6.77,0.71 3.42,0.71 0.71,3.42
0.71,6.77 0.71,10.12 3.42,12.83 6.77,12.83 10.12,12.83 12.83,10.12 12.83,6.77 Z
M 7.86,3.16 L 7.82,3.0 Q 7.52,2.98 7.45,2.73 7.34,2.42 7.34,2.13 7.34,1.97
7.47,1.78 7.58,1.62 7.87,1.62 8.05,1.62 8.2,1.79 8.28,1.9 8.28,1.98 8.28,2.1 8.25,2.57
L 8.32,2.71 Q 8.53,2.82 8.79,3.14 9.34,4.45 9.38,5.46
L 9.37,5.66 9.26,5.9 9.29,6.08 11.12,6.08 11.25,6.28 11.18,7.22
Q 11.18,7.62 11.23,7.87 11.29,7.94 11.62,8.13 11.77,8.3 11.77,8.63 11.77,8.88 11.66,9.12
11.45,9.45 11.19,9.45 L 7.2,9.39 Q 6.77,9.39 6.64,8.63 6.6,8.6 5.63,8.41 4.65,8.24 4.53,8.24
L 4.44,8.25 4.37,8.59 4.43,8.65 5.72,9.05 5.85,9.01 5.97,9.14 5.95,9.37 2.87,9.34
Q 1.89,9.34 1.77,8.47 L 1.82,8.35 1.86,8.33 2.07,8.39 2.26,8.73 2.73,8.95 2.94,8.86
Q 3.59,8.64 3.99,8.6 L 4.07,8.45 4.08,8.25 4.05,8.15 Q 3.63,8.08 2.5,7.65
L 2.45,7.48 Q 2.67,6.82 3.6,5.72 4.2,5.1 5.11,4.64 5.27,3.83 5.72,3.03 L 5.86,2.9 6.0,3.06
Q 5.96,3.18 5.78,4.04 5.61,4.89 5.61,4.98 L 5.69,5.02 Q 5.93,4.3 6.21,4.08
L 6.44,4.14 6.74,3.95 7.49,4.07 Q 7.58,3.95 7.86,3.16 Z
M 6.26,4.77 L 6.23,4.78 Q 6.03,5.2 5.75,6.07 6.18,7.05 7.28,7.37 L 7.37,7.3
Q 7.43,7.22 7.67,6.26 L 7.66,6.15 7.3,6.13 Q 7.16,6.13 7.0,6.46 6.83,6.88 6.69,6.92 L 6.32,6.66
Q 6.32,6.32 6.6,5.69 6.66,5.5 6.77,5.36 6.85,5.27 7.89,5.27 L 8.07,5.22 8.14,5.03
Q 8.1,4.81 8.1,4.62 L 8.02,4.62 7.77,4.85 Q 7.52,4.8 7.02,4.68
L 7.0,4.64 6.88,4.64 6.68,4.76 6.41,4.56 6.33,4.57 6.26,4.77 Z"
fill="param(fill)" fill-opacity="param(fill-opacity)"
stroke="param(outline)" stroke-opacity="param(outline-opacity)" stroke-width="param(outline-width)"/>
<path d="M 12.83,6.77 C 12.83,10.12 10.12,12.83 6.77,12.83 3.42,12.83 0.71,10.12 0.71,6.77
0.71,3.42 3.42,0.71 6.77,0.71 10.12,0.71 12.83,3.42 12.83,6.77 Z
M 7.86,3.16 Q 7.58,3.95 7.49,4.07 L 6.74,3.95 6.44,4.14 6.21,4.08 Q 5.93,4.3 5.69,5.02 L 5.61,4.98
Q 5.61,4.89 5.78,4.04 5.96,3.18 6.0,3.06 L 5.86,2.9 5.72,3.03
Q 5.27,3.83 5.11,4.64 4.2,5.1 3.6,5.72 2.67,6.82 2.45,7.48 L 2.5,7.65
Q 3.63,8.08 4.05,8.15 L 4.08,8.25 4.07,8.45 L 3.99,8.6 Q 3.59,8.64 2.94,8.86
L 2.73,8.95 2.26,8.73 2.07,8.39 1.86,8.33 1.82,8.35 1.77,8.47
Q 1.89,9.34 2.87,9.34 L 5.95,9.37 5.97,9.14 5.85,9.01 5.72,9.05 4.43,8.65 4.37,8.59 4.44,8.25 4.53,8.24
Q 4.65,8.24 5.63,8.41 6.6,8.6 6.64,8.63 6.77,9.39 7.2,9.39 L 11.19,9.45
Q 11.45,9.45 11.66,9.12 11.77,8.88 11.77,8.63 11.77,8.3 11.62,8.13 11.29,7.94 11.23,7.87
11.18,7.62 11.18,7.22 L 11.25,6.28 11.12,6.08 9.29,6.08 9.26,5.9 9.37,5.66 9.38,5.46
Q 9.34,4.45 8.79,3.14 8.53,2.82 8.32,2.71 L 8.25,2.57 Q 8.28,2.1 8.28,1.98 8.28,1.9
8.2,1.79 8.05,1.62 7.87,1.62 7.58,1.62 7.47,1.78 7.34,1.97 7.34,2.13 7.34,2.42
7.45,2.73 7.52,2.98 7.82,3.0 L 7.86,3.16 Z
M 6.26,4.77 L 6.33,4.57 6.41,4.56 6.68,4.76 6.88,4.64 7.0,4.64 7.02,4.68
Q 7.52,4.8 7.77,4.85 L 8.02,4.62 8.1,4.62 Q 8.1,4.81 8.14,5.03 L 8.07,5.22 7.89,5.27
Q 6.85,5.27 6.77,5.36 6.66,5.5 6.6,5.69 6.32,6.32 6.32,6.66 L 6.69,6.92
Q 6.83,6.88 7.0,6.46 7.16,6.13 7.3,6.13 L 7.66,6.15 7.67,6.26
Q 7.43,7.22 7.37,7.3 L 7.28,7.37 Q 6.18,7.05 5.75,6.07 6.03,5.2 6.23,4.78 L 6.26,4.77 Z"
style="fill:#ffffff;fill-opacity:1;fill-rule:nonzero;stroke:none"/>
</svg>
