<svg enable-background="new 0 0 10 10" width="10" height="10" viewBox="0 0 10 10" xmlns="http://www.w3.org/2000/svg">
<path d="M 6.09,4.48 L 6.05,4.34 Q 5.75,4.32 5.68,4.1 5.57,3.83 5.57,3.58 5.57,3.44
5.7,3.27 5.81,3.13 6.1,3.13 6.28,3.13 6.43,3.28 6.51,3.38 6.51,3.45 6.51,3.55 6.48,3.96
L 6.55,4.09 Q 6.76,4.18 7.02,4.46 7.57,5.61 7.61,6.5
L 7.6,6.67 7.49,6.88 7.52,7.04 9.35,7.04 9.48,7.22 9.41,8.04
Q 9.41,8.39 9.46,8.61 9.52,8.67 9.85,8.84 10,8.99 10,9.28 10,9.5 9.89,9.71 9.68,10 9.42,10
L 5.43,9.95 Q 5,9.95 4.87,9.28 4.83,9.25 3.86,9.09 2.88,8.94 2.76,8.94
L 2.67,8.95 2.6,9.24 2.66,9.3 3.95,9.65 4.08,9.61 4.2,9.73 4.18,9.93 1.1,9.9
Q 0.12,9.9 0,9.14 L 0.05,9.03 0.09,9.02 0.3,9.07 0.49,9.37 0.96,9.56 1.17,9.48
Q 1.82,9.29 2.22,9.25 L 2.3,9.12 2.31,8.95 2.28,8.86 Q 1.86,8.8 0.73,8.42 L 0.68,8.27
Q 0.9,7.69 1.83,6.73 2.43,6.18 3.34,5.78 3.5,5.07 3.95,4.37 L 4.09,4.25 4.23,4.39
Q 4.19,4.5 4.01,5.25 3.84,6.0 3.84,6.08 L 3.92,6.11 Q 4.16,5.48 4.44,5.29
L 4.67,5.34 4.97,5.17 5.72,5.28 Q 5.81,5.17 6.09,4.48 Z
M 4.49,5.89 L 4.46,5.9 Q 4.26,6.27 3.98,7.03 4.41,7.89 5.51,8.17 L 5.6,8.11
Q 5.66,8.04 5.9,7.2 L 5.89,7.1 5.53,7.09 Q 5.39,7.09 5.23,7.38 5.06,7.74 4.92,7.78
L 4.55,7.55 Q 4.55,7.25 4.83,6.7 4.89,6.53 5.0,6.41 5.08,6.33 6.12,6.33
L 6.3,6.29 6.37,6.12 Q 6.33,5.93 6.33,5.76 L 6.25,5.76 6.0,5.96
Q 5.75,5.92 5.25,5.81 L 5.23,5.78 5.11,5.78 4.91,5.88 4.64,5.71 4.56,5.72 4.49,5.89 Z"
fill="param(fill)" fill-opacity="param(fill-opacity)"
stroke="param(outline)" stroke-opacity="param(outline-opacity)" stroke-width="param(outline-width)"/>
</svg>
