<svg enable-background="new 0 0 10 10" width="10" height="10" viewBox="0 0 10 10" xmlns="http://www.w3.org/2000/svg">
<path d="M 5,0 C 7.76,0 10,2.24 10,5 10,7.76 7.76,10
5,10 2.24,10 0,7.76 0,5 0,2.24 2.24,0 5,0 Z
M 5,1.67 C 3.16,1.67 1.67,3.16 1.67,5 1.67,6.84 3.16,8.33
5,8.33 6.84,8.33 8.33,6.84 8.33,5 8.33,3.16 6.84,1.67 5,1.67 Z
M 5,3.84 C 5.64,3.84 6.16,4.36 6.16,5 6.16,5.64 5.64,6.16
5,6.16 4.36,6.16 3.84,5.64 3.84,5 3.84,4.36 4.36,3.84 5,3.84 Z"
fill="param(fill)" fill-opacity="param(fill-opacity)"
stroke="param(outline)" stroke-opacity="param(outline-opacity)" stroke-width="param(outline-width)"/>
<path d="M 5,1.67 C 6.84,1.67 8.33,3.16 8.33,5 8.33,6.84 6.84,8.33
5,8.33 3.16,8.33 1.67,6.84 1.67,5 1.67,3.16 3.16,1.67 5,1.67 Z
M 5,3.84 C 4.36,3.84 3.84,4.36 3.84,5 3.84,5.64 4.36,6.16
5,6.16 5.64,6.16 6.16,5.64 6.16,5 6.16,4.36 5.64,3.84 5,3.84 Z"
style="fill:#ffffff;fill-opacity:1;fill-rule:nonzero;stroke:none"/>
</svg>
