<svg enable-background="new 0 0 13 10" width="13" height="10" viewBox="0 0 13 10" xmlns="http://www.w3.org/2000/svg">
<path d="M 3.26,0 C 4.68,0 5.54,0.85 6.08,1.72 6.64,2.62 7,3.70
7,5 7,6.3 6.64,7.38 6.08,8.28 5.54,9.15 4.68,10
3.26,10 2.57,10 1.91,9.75 1.28,9.26 0.74,8.83 0.25,8.26 0,7.48
H 1.09 C 1.59,8.4 2.29,9 3.26,9 4.07,9 4.75,8.53 5.28,7.64 5.63,7.08 6,6.22
6,5 6,3.78 5.63,2.92 5.28,2.36 4.75,1.47 4.07,1
3.26,1 2.29,1 1.59,1.6 1.09,2.52 H 0
C 0.25,1.74 0.74,1.17 1.28,0.74 1.91,0.25 2.57,0 3.26,0 Z"
fill="param(fill)" fill-opacity="param(fill-opacity)"
stroke="param(outline)" stroke-opacity="param(outline-opacity)" stroke-width="param(outline-width)"/>
</svg>
