<svg enable-background="new 0 0 10 10" width="10" height="10" viewBox="0 0 10 10" xmlns="http://www.w3.org/2000/svg">
<path d="M 5.75,0 L 5,4.25 4.25,0 Z
M 7.33,0.51 L 8.55,1.39 5.44,4.39 Z
M 9.52,2.74 L 9.99,4.17 5.71,4.77 Z
M 5.71,5.23 L 9.99,5.83 9.52,7.26 Z
M 5.44,5.61 L 8.55,8.61 7.33,9.49 Z
M 5,5.75 L 5.75,10 4.25,10 Z
M 4.56,5.61 L 2.67,9.49 1.45,8.61 Z
M 4.29,5.23 L 0.48,7.26 0.01,5.83 Z
M 0.48,2.74 L 4.29,4.77 0.01,4.17 Z
M 2.67,0.51 L 4.56,4.39 1.45,1.39 Z
M 5,4.62 C 5.21,4.62 5.38,4.79 5.38,5
5.38,5.21 5.21,5.38 5,5.38
4.79,5.38 4.62,5.21 4.62,5
4.62,4.79 4.79,4.62 5,4.62 Z"
fill="param(fill)" fill-opacity="param(fill-opacity)"
stroke="param(outline)" stroke-opacity="param(outline-opacity)" stroke-width="param(outline-width)"/>
</svg>
