<svg enable-background="new 0 0 10 10" width="10" height="10" viewBox="0 0 10 10" xmlns="http://www.w3.org/2000/svg">
<path d="M 5,0 C 7.76,0 10,2.24 10,5 10,7.76 7.76,10
5,10 2.24,10 0,7.76 0,5 0,2.24 2.24,0 5,0 Z
M 5,1.3 C 2.96,1.3 1.3,2.96 1.3,5 1.3,7.04 2.96,8.7
5,8.7 7.04,8.7 8.7,7.04 8.7,5 8.7,2.96 7.04,1.3 5,1.3 Z"
fill="param(fill)" fill-opacity="param(fill-opacity)"
stroke="param(outline)" stroke-opacity="param(outline-opacity)" stroke-width="param(outline-width)"/>
<path d="M 5,1.3 C 7.04,1.3 8.7,2.96 8.7,5 8.7,7.04 7.04,8.7
5,8.7 2.96,8.7 1.3,7.04 1.3,5 1.3,2.96 2.96,1.3 5,1.3 Z"
style="fill:#ffffff;fill-opacity:1;fill-rule:nonzero;stroke:none"/>
</svg>
