<svg enable-background="new 0 0 10 10" width="10" height="10" viewBox="0 0 10 10" xmlns="http://www.w3.org/2000/svg">
<path d="M 10,8.99 V 10 H 0 V 8.99 H 1.35
L 1.48,8.88 1.58,7.69 1.52,7.45 Q 0.88,7.66 0.29,7.66
L 0.14,7.59 0.12,7.45 Q 1.1,6.41 1.27,5.52
L 1.25,5.34 0.48,5.59 0.42,5.46 Q 1.15,4.45 1.94,1.97
2.4,4.36 3.29,5.44 L 3.29,5.59 2.43,5.38 2.42,5.52
Q 2.43,6.18 3.52,7.57 L 3.4,7.65 Q 2.87,7.65 2.15,7.45
L 2.11,7.69 2.19,8.99 H 4 V 4.15 L 3.4,4.07 3.44,3.9 6.7,0.04
9.96,3.9 10,4.07 9.4,4.15 V 8.99 H 10 Z
M 7.45,8.97 V 6.48 H 5.95 V 8.97 H 7.45 Z"
fill="param(fill)" fill-opacity="param(fill-opacity)"
stroke="param(outline)" stroke-opacity="param(outline-opacity)" stroke-width="param(outline-width)"/>
</svg>
