<svg enable-background="new 0 0 11.4 10" width="11.4" height="10" viewBox="0 0 11.4 10" xmlns="http://www.w3.org/2000/svg">
<path d="M 5.7,2.79 C 6.07,2.79 6.4,2.91 6.68,3.15
C 6.64,3.08 6.62,3 6.62,2.93 6.62,2.55 6.87,1.89 7.69,1.07
8.41,0.35 9.07,0.02 9.52,0.02 9.66,0.02 9.76,0.04 9.86,0.14
9.95,0.23 9.98,0.34 9.98,0.48 9.98,0.88 9.64,1.6 8.93,2.31
8.24,3 7.53,3.37 7.07,3.37 7.01,3.37 6.91,3.35 6.85,3.32
C 7.07,3.58 7.21,3.92 7.21,4.3 7.21,4.95 6.79,5.51 6.21,5.72
C 6.5,5.72 7.15,6.29 7.51,7.64 7.67,8.25 7.69,8.54 7.69,8.83
7.69,9.42 7.52,10 7.13,10 6.67,10 6.11,9.22 5.81,8.1
5.67,7.58 5.63,7.17 5.63,6.9 5.63,6.46 5.71,5.93 5.97,5.78
C 5.88,5.8 5.79,5.81 5.7,5.81 4.86,5.81 4.19,5.13 4.19,4.3
4.19,4.2 4.19,4.12 4.21,4.03
C 4.10,4.19 3.75,4.37 3.10,4.37 2.88,4.37 2.44,4.33 1.9,4.19
0.71,3.87 0,3.27 0,2.87 0,2.42 0.7,2.31 1.16,2.31
1.39,2.31 1.8,2.34 2.36,2.49 3.44,2.78 4.28,3.36 4.28,3.79
C 4.49,3.21 5.05,2.79 5.7,2.79 Z
M 5.7,3.59 C 5.31,3.59 4.99,3.91 4.99,4.3 4.99,4.69 5.31,5.01
5.7,5.01 6.09,5.01 6.41,4.69 6.41,4.3 6.41,3.91 6.09,3.59 5.7,3.59 Z"
fill="param(fill)" fill-opacity="param(fill-opacity)"
stroke="param(outline)" stroke-opacity="param(outline-opacity)" stroke-width="param(outline-width)"/>
</svg>
